<svg xmlns="http://www.w3.org/2000/svg" viewBox="0 0 64 64" fill="none">
  <defs>
    <linearGradient id="shell" x1="8" y1="6" x2="56" y2="58" gradientUnits="userSpaceOnUse">
      <stop stop-color="#171c19"/>
      <stop offset="1" stop-color="#0b0d0c"/>
    </linearGradient>
    <linearGradient id="baobab" x1="22" y1="12" x2="42" y2="52" gradientUnits="userSpaceOnUse">
      <stop stop-color="#f5c451"/>
      <stop offset="1" stop-color="#6fd56f"/>
    </linearGradient>
  </defs>
  <rect x="3.5" y="3.5" width="57" height="57" rx="14" fill="url(#shell)" stroke="#36413a" stroke-width="3"/>
  <path d="M16 18L24 10L26 21H38L40 10L48 18L43 25C45.4 27 47 30 47 33.5C47 42.1 40.3 49 32 49C23.7 49 17 42.1 17 33.5C17 30 18.6 27 21 25L16 18Z" fill="#0b0d0c" stroke="#6fd56f" stroke-width="4" stroke-linejoin="round"/>
  <path d="M25 50V32C25 29.8 26.8 28 29 28H35C37.2 28 39 29.8 39 32V50" stroke="url(#baobab)" stroke-width="6" stroke-linecap="round"/>
  <path d="M20 24C23 20.5 27.2 19 32 19C36.8 19 41 20.5 44 24" stroke="#f5c451" stroke-width="5" stroke-linecap="round"/>
  <circle cx="27" cy="32" r="2.5" fill="#f5c451"/>
  <circle cx="37" cy="32" r="2.5" fill="#f5c451"/>
  <path d="M17 49H47" stroke="#77b8d8" stroke-width="3" stroke-linecap="round"/>
</svg>
